<?xml version="1.0" encoding="UTF-8"?>
<svg id="Calque_1" data-name="Calque 1" xmlns="https://www.w3.org/2000/svg" xmlns:xlink="http://www.w3.org/1999/xlink" version="1.1" viewBox="0 0 56.7 56.7">
  <defs>
    <style>
      .cls-1 {
        clip-path: url(#clippath);
      }

      .cls-2 {
        fill: none;
      }

      .cls-2, .cls-3 {
        stroke-width: 0px;
      }

      .cls-3 {
        fill: #79969f;
      }
    </style>
    <clipPath id="clippath">
      <rect class="cls-2" x="8.4" y="17.9" width="39.9" height="20.9" transform="translate(-9.5 15.1) rotate(-25.7)"/>
    </clipPath>
  </defs>
  <g class="cls-1">
    <path class="cls-3" d="M26.9,23.6c-.6-.5-1.3-.7-2-.7.7.2,1.3.5,2,.7M37.8,31c-.9.6-1.9,1-2.6,1.8.9-.5,1.9-1,2.6-1.8M35.7,23.1c1,1,2.3,1.5,3.6,2.1-1.1-.9-2.3-1.6-3.6-2.1M15.1,24.4c0,0,0,.1,0,.2,1.7.4,3.4.8,5,1.2-1.6-.8-3.3-1.2-5-1.4M25.4,32.6c2.2-.9,4.3-1.9,6.3-3.3-2.3.7-4.5,1.6-6.3,3.3M15.5,28.5c-2.4.5-5,.6-7.1,2.3,2.5-.4,4.7-1.7,7.1-2.3M15.1,32.5c3.1-.7,5.7-2.7,8.7-3.7-3.1.8-6.2,1.5-8.7,3.7M41.7,28.2c-.9,0-1.8-.1-2.7-.3-2.1-.4-3.8.7-5.5,1.5-2.3,1.2-4.6,2.4-7,3.5-.3.1-.6.3-1,.2-.2,0-.4,0-.5-.3,0-.2,0-.4.2-.6.8-.8,1.8-1.3,2.7-1.9,1.8-1.1,3.7-1.9,5.8-2.4.1,0,.2-.1.3-.1-2.7-.5-5.2.2-7.8,1.1-2.9,1.1-5.7,2.4-8.6,3.7-.7.3-1.4.5-2.1.6-.3,0-.7,0-.9-.4-.2-.4,0-.7.3-.9,1.3-1.2,2.8-1.9,4.4-2.5,1.6-.7,3.4-1,5.1-1.4,0,0,0-.1,0-.2-1,0-2,.1-3,.2-2.4.2-4.6.9-6.9,1.6-1.5.5-3,1.1-4.5,1.6-.6.2-1.3.3-2,.2-.5-.1-.7-.5-.4-.9.4-.6,1-.9,1.5-1.2,1.6-.9,3.4-1.2,5.1-1.5,2.5-.5,5-.5,7.5-.6.7,0,1.3,0,2.1,0-1.8-.3-3.6-.3-5.3-.8-1.6-.4-3.2-.7-4.7-1.4-.3-.1-.7-.3-.6-.7,0-.4.5-.4.9-.4,1.3,0,2.7.3,4,.5,1.6.3,3.2.9,4.8,1.3,1.2.3,2.3.7,3.5,1,2,.4,4.1.6,6.2.6.9,0,1.8,0,2.6,0-1-.5-2.1-.7-3.1-1-2.9-.8-5.8-1.8-8.5-3-.2,0-.3-.2-.5-.3-.2-.2-.4-.4-.3-.7.1-.3.4-.3.7-.3.9,0,1.9.2,2.7.5,1.1.4,2.1.7,3.2,1.1,1,.4,2,.9,3,1.4,1.4.8,2.9,1.5,4.5,1.8.3,0,.7.1,1,.3,1.3.7,2.7.3,4,.5-1.5-.8-3-1.6-4.5-2.3-1.1-.6-2.1-1.3-3.1-2-.2-.1-.2-.3-.4-.4-.2-.2-.3-.4-.1-.7.2-.3.5-.2.8-.1.8.2,1.5.7,2.3,1,1.7.7,3.2,1.8,4.7,2.7,1.2.7,2.4,1.4,3.6,2.2.1,0,.3.2.5.2,1.5.2,3,.5,4.5.8.3,0,.6,0,.6.4,0,.4-.4.2-.7.2-1.2,0-2.3-.3-3.5-.5-2.3-.5-4.1.2-5.9,1.5-1.4,1-2.8,2-4.3,2.8-.7.4-1.4.6-2.1.8-.2,0-.5,0-.7-.1-.2-.2,0-.4.2-.6.6-.6,1.2-1.2,1.9-1.7,1.7-1.2,3.6-2.2,5.6-2.9,0,0,.2,0,.3-.1,0,0,0-.1,0-.2"/>
  </g>
</svg>