<?xml version="1.0" encoding="UTF-8"?>
<svg id="Calque_1" data-name="Calque 1" xmlns="http://www.w3.org/2000/svg" version="1.1" viewBox="0 0 297.6 141.7">
  <defs>
    <style>
      .cls-1 {
        fill: #c7d1d5;
      }

      .cls-1, .cls-2 {
        stroke-width: 0px;
      }

      .cls-2 {
        fill: #79969f;
      }

      .cls-3 {
        isolation: isolate;
      }
    </style>
  </defs>
  <g class="cls-3">
    <g class="cls-3">
      <path class="cls-2" d="M38.1,15.8h-18.2v15.8h16.3v2h-16.3v16.9h19.2v2H14.5V13.9h23.6v2Z"/>
    </g>
    <g class="cls-3">
      <path class="cls-2" d="M49.9,16.3v36.2h-2.3V13.9h6.9l13,32.3,13-32.3h6.7v38.6h-5.4V16.3l-14.5,36.2h-2.9l-14.6-36.2Z"/>
    </g>
    <g class="cls-3">
      <path class="cls-2" d="M104.9,52.5h-5.4V13.9h5.4v38.6Z"/>
    </g>
    <g class="cls-3">
      <path class="cls-2" d="M140.4,52.5h-23.1V13.9h5.4v36.6h17.7v2Z"/>
    </g>
    <g class="cls-3">
      <path class="cls-2" d="M157.1,52.5h-5.4v-15.8l-13.6-22.8h6.3l11.5,19.7,10.7-19.7h4.1l-13.7,22.1v16.5Z"/>
    </g>
  </g>
  <g class="cls-3">
    <g class="cls-3">
      <path class="cls-2" d="M87.4,103.7h-5.4v-38.6h10.5c6.1,0,8.8.6,11.4,2.5,2.5,1.9,3.8,4.6,3.8,8.5s-1.3,6.9-4.1,8.7c-2.6,1.7-5.4,2.3-11.5,2.3h-4.7v16.7ZM93.2,85.2c5.8,0,8.7-3,8.7-9.2s-2.8-9.1-8.7-9.1h-5.7v18.4h5.7Z"/>
    </g>
    <g class="cls-3">
      <path class="cls-2" d="M143.3,103.7h-6l-5.2-13h-15.6l-4.9,13h-4l16.9-39h2.6l16.2,39ZM131.4,88.8l-7.2-18.1-6.9,18.1h14.1Z"/>
    </g>
    <g class="cls-3">
      <path class="cls-2" d="M152.6,92.6c.2,2.8.3,3.9.9,5.4,1.2,2.8,4.1,4.6,7.7,4.6s4.9-.9,6.4-2.4c1.3-1.2,1.9-2.7,1.9-4.8s-.9-4.2-2.4-5.6c-1.3-1.1-2.3-1.6-5.5-3l-3.7-1.5c-4-1.6-5.4-2.3-7-3.8-2-1.9-3-4.1-3-6.8,0-6.4,5.2-10.5,13.2-10.5s12.8,3.9,13,11.1h-5.4c-.2-2.6-.4-3.7-1.1-5.2-1.2-2.5-3.9-4.1-7-4.1s-7.5,2.9-7.5,6.9,1.9,5.3,7.1,7.4l4.2,1.6c3.5,1.4,5,2.2,6.5,3.4,2.4,2,3.8,4.8,3.8,8s-1.7,6.9-4.7,8.9c-2.1,1.3-5.3,2.1-9,2.1-8.8,0-13.5-4.1-13.7-11.8h5.4Z"/>
    </g>
    <g class="cls-3">
      <path class="cls-2" d="M208.5,76.8c-.2-2.9-.7-4.5-1.8-6.3-1.6-2.6-4.8-4.3-8.2-4.3-7.4,0-11.2,6.3-11.2,18.3s3.9,18.1,11.2,18.1,6.9-1.9,8.4-4.6c1-1.9,1.5-3.7,1.7-7h5.5c-.5,3.7-1.3,6-3.1,8.2-2.6,3.2-7.2,5.2-12.2,5.2-10.8,0-17.4-7.7-17.4-20.1s6.7-20.1,17.5-20.1,10.2,2.2,12.9,5.8c1.4,1.9,2,3.7,2.3,6.7h-5.5Z"/>
    </g>
    <g class="cls-3">
      <path class="cls-2" d="M253.5,103.7h-6l-5.2-13h-15.6l-4.9,13h-4l16.9-39h2.6l16.2,39ZM241.6,88.8l-7.2-18.1-6.9,18.1h14.1Z"/>
    </g>
    <g class="cls-3">
      <path class="cls-2" d="M283.8,103.7h-23.1v-38.6h5.4v36.6h17.7v2Z"/>
    </g>
  </g>
  <g class="cls-3">
    <g class="cls-3">
      <path class="cls-1" d="M74.8,130.2h-11.5l-7.3-6.9c-5.7,5.8-11.3,8.1-19.4,8.1-12.9,0-22.3-7.4-22.3-17.5s2-8.6,5.7-11.7c2.6-2.3,4.6-3.5,9.5-6.2-6.3-7.2-8.1-10.7-8.1-15.9,0-8.3,7-14,17.1-14s15.7,5.4,15.7,13.4-2,7.8-5.8,10.4c-2.5,1.7-4.1,2.5-9.3,4.8l19.5,20c3.2-6.1,4.2-10.5,4.2-17.3h3.8c0,6.7-1.5,12-5.6,19.6l13.7,13.2ZM31.6,98.3c-5.9,2.9-8.5,7.1-8.5,13.9s6.2,16.3,15,16.3,11.5-2.5,15.7-7.5l-22.2-22.6ZM44.3,87.8c2.2-2.4,3.5-6,3.5-9.4,0-5.8-3.7-9.6-9.1-9.6s-9.2,3.6-9.2,9,1.2,7.1,7.7,14.8c3.9-1.8,5.6-2.8,7.2-4.7Z"/>
    </g>
  </g>
</svg>